<svg width="33" height="32" viewBox="0 0 33 32" fill="none" xmlns="http://www.w3.org/2000/svg">
<path d="M6.53094 22.9242L7.99067 22.043C8.1373 21.9545 8.25874 21.8298 8.34334 21.6809C8.42795 21.532 8.47289 21.3638 8.47385 21.1925L8.4992 16.6764C8.50026 16.4877 8.55468 16.3032 8.65618 16.1441L11.1365 12.2569C11.2098 12.142 11.3058 12.0433 11.4187 11.9669C11.5315 11.8904 11.6588 11.8379 11.7927 11.8124C11.9266 11.7869 12.0642 11.7891 12.1973 11.8188C12.3303 11.8485 12.4558 11.905 12.5662 11.985L15.0232 13.7651C15.2313 13.9159 15.4894 13.9807 15.7441 13.9462L19.6791 13.4133C19.9205 13.3806 20.1417 13.261 20.3011 13.0768L23.0707 9.87669C23.2388 9.68242 23.3258 9.43089 23.3134 9.17425L23.1674 6.13632M23.7164 25.4603L22.3749 24.1162C22.2495 23.9905 22.0928 23.9004 21.921 23.8553L19.2386 23.1514C19.0006 23.0889 18.7939 22.9409 18.6582 22.7355C18.5225 22.5302 18.4673 22.282 18.5031 22.0385L18.8012 20.014C18.8264 19.8431 18.8954 19.6816 19.0015 19.5453C19.1076 19.409 19.2473 19.3026 19.4068 19.2363L23.2131 17.6542C23.3889 17.5811 23.5819 17.5597 23.7695 17.5926C23.957 17.6254 24.1313 17.7112 24.2718 17.8397L27.3836 20.6857M28.333 16C28.333 22.6274 22.9604 28 16.333 28C9.70559 28 4.33301 22.6274 4.33301 16C4.33301 9.37258 9.70559 4 16.333 4C22.9604 4 28.333 9.37258 28.333 16Z" stroke="url(#paint0_linear_6_157)" stroke-width="2" stroke-linecap="round" stroke-linejoin="round"/>
<defs>
<linearGradient id="paint0_linear_6_157" x1="28.333" y1="16" x2="4.33301" y2="16" gradientUnits="userSpaceOnUse">
<stop stop-color="#F5C26E"/>
<stop offset="1" stop-color="#66E5FB"/>
</linearGradient>
</defs>
</svg>
