<svg width="109" height="24" viewBox="0 0 109 24" fill="none" xmlns="http://www.w3.org/2000/svg">
<path d="M0 5.18269V1.27927H18.7834V5.18269H11.7815V23.672H7.00189V5.18269H0Z" fill="white" fill-opacity="0.88"/>
<path d="M18.4338 23.672V6.87745H23.0459V9.80774H23.2246C23.5373 8.76538 24.0622 7.97813 24.7992 7.44601C25.5362 6.90661 26.385 6.6369 27.3453 6.6369C27.5836 6.6369 27.8404 6.65148 28.1159 6.68064C28.3913 6.7098 28.6333 6.74989 28.8418 6.80091V10.9339C28.6184 10.8683 28.3095 10.81 27.9149 10.759C27.5203 10.708 27.1592 10.6825 26.8316 10.6825C26.1318 10.6825 25.5065 10.8319 24.9555 11.1308C24.4121 11.4223 23.9803 11.8305 23.6601 12.3554C23.3475 12.8802 23.1911 13.4852 23.1911 14.1704V23.672H18.4338Z" fill="white" fill-opacity="0.88"/>
<path d="M34.1289 23.9891C33.0345 23.9891 32.0592 23.8032 31.2031 23.4314C30.3469 23.0524 29.6694 22.4948 29.1706 21.7585C28.6793 21.015 28.4336 20.0893 28.4336 18.9813C28.4336 18.0483 28.6085 17.2647 28.9585 16.6305C29.3084 15.9964 29.7848 15.4861 30.3879 15.0998C30.9909 14.7134 31.6758 14.4219 32.4427 14.2251C33.2169 14.0282 34.0284 13.8897 34.8771 13.8096C35.8747 13.7075 36.6788 13.6128 37.2893 13.5253C37.8997 13.4305 38.3427 13.292 38.6182 13.1098C38.8936 12.9276 39.0314 12.6579 39.0314 12.3007V12.2351C39.0314 11.5426 38.808 11.0068 38.3613 10.6278C37.9221 10.2487 37.2967 10.0592 36.4852 10.0592C35.6291 10.0592 34.9478 10.2451 34.4416 10.6169C33.9353 10.9813 33.6003 11.4405 33.4365 11.9945L29.0366 11.6446C29.26 10.6241 29.6992 9.74214 30.3544 8.99863C31.0095 8.24784 31.8545 7.67198 32.8893 7.27107C33.9316 6.86287 35.1377 6.65877 36.5075 6.65877C37.4605 6.65877 38.3725 6.76811 39.2435 6.98679C40.122 7.20547 40.9 7.54442 41.5775 8.00364C42.2624 8.46287 42.8022 9.0533 43.1968 9.77494C43.5913 10.4893 43.7886 11.3458 43.7886 12.3444V23.672H39.277V21.3431H39.143C38.8676 21.8679 38.499 22.3307 38.0375 22.7317C37.5759 23.1253 37.0212 23.4351 36.3735 23.661C35.7258 23.8797 34.9776 23.9891 34.1289 23.9891ZM35.4913 20.7745C36.1911 20.7745 36.8091 20.6396 37.3451 20.3699C37.8811 20.0929 38.3018 19.7212 38.607 19.2547C38.9122 18.7882 39.0649 18.2597 39.0649 17.6692V15.887C38.916 15.9818 38.7112 16.0692 38.4507 16.1494C38.1975 16.2223 37.9109 16.2916 37.5908 16.3572C37.2706 16.4155 36.9505 16.4702 36.6304 16.5212C36.3103 16.5649 36.0199 16.605 35.7593 16.6415C35.201 16.7216 34.7133 16.8492 34.2964 17.0241C33.8795 17.1991 33.5557 17.436 33.3249 17.7349C33.0941 18.0264 32.9787 18.3909 32.9787 18.8282C32.9787 19.4624 33.2132 19.9472 33.6822 20.2825C34.1587 20.6105 34.7617 20.7745 35.4913 20.7745Z" fill="white" fill-opacity="0.88"/>
<path d="M61.2844 6.87745L55.2876 23.672H49.9273L43.9304 6.87745H48.9557L52.5181 18.8938H52.6968L56.248 6.87745H61.2844Z" fill="white" fill-opacity="0.88"/>
<path d="M69.4109 24C67.6464 24 66.1277 23.6501 64.8546 22.9503C63.589 22.2433 62.6137 21.2446 61.9288 19.9544C61.2438 18.6569 60.9014 17.1226 60.9014 15.3513C60.9014 13.6237 61.2438 12.1075 61.9288 10.8027C62.6137 9.49795 63.5778 8.48109 64.8211 7.75216C66.0718 7.02323 67.5385 6.65877 69.221 6.65877C70.3526 6.65877 71.4061 6.83736 72.3813 7.19453C73.3641 7.54442 74.2202 8.07289 74.9498 8.77995C75.6869 9.48702 76.2601 10.3763 76.6696 11.4478C77.0791 12.5121 77.2838 13.7585 77.2838 15.1872V16.4665H62.7998V13.58H72.8057C72.8057 12.9093 72.6568 12.3153 72.359 11.7977C72.0612 11.2802 71.648 10.8756 71.1194 10.5841C70.5983 10.2852 69.9915 10.1358 69.2992 10.1358C68.577 10.1358 67.9368 10.2998 67.3784 10.6278C66.8275 10.9485 66.3957 11.3822 66.083 11.9289C65.7703 12.4683 65.6102 13.0697 65.6028 13.733V16.4774C65.6028 17.3084 65.7591 18.0264 66.0718 18.6314C66.392 19.2364 66.8424 19.703 67.4231 20.031C68.0038 20.359 68.6924 20.523 69.489 20.523C70.0176 20.523 70.5015 20.4501 70.9408 20.3043C71.38 20.1585 71.756 19.9399 72.0687 19.6483C72.3813 19.3567 72.6196 18.9995 72.7834 18.5768L77.1833 18.861C76.9599 19.8961 76.5021 20.8 75.8097 21.5727C75.1248 22.338 74.2388 22.9358 73.1519 23.3658C72.0724 23.7886 70.8254 24 69.4109 24Z" fill="white" fill-opacity="0.88"/>
<path d="M83.5732 1.27927V23.672H78.8159V1.27927H83.5732Z" fill="white" fill-opacity="0.88"/>
<path d="M85.8117 23.672V6.87745H90.569V23.672H85.8117ZM88.2015 4.71253C87.4942 4.71253 86.8875 4.48292 86.3812 4.02369C85.8824 3.55718 85.633 2.99954 85.633 2.3508C85.633 1.70934 85.8824 1.159 86.3812 0.699773C86.8875 0.233258 87.4942 0 88.2015 0C88.9088 0 89.5118 0.233258 90.0106 0.699773C90.5168 1.159 90.77 1.70934 90.77 2.3508C90.77 2.99954 90.5168 3.55718 90.0106 4.02369C89.5118 4.48292 88.9088 4.71253 88.2015 4.71253Z" fill="white" fill-opacity="0.88"/>
<path d="M100.558 24C98.8229 24 97.3227 23.6392 96.0571 22.9175C94.7989 22.1886 93.8274 21.1754 93.1425 19.8779C92.4575 18.5731 92.1151 17.0606 92.1151 15.3403C92.1151 13.6055 92.4575 12.0893 93.1425 10.7918C93.8274 9.48701 94.7989 8.4738 96.0571 7.75216C97.3227 7.02323 98.8229 6.65877 100.558 6.65877C102.292 6.65877 103.789 7.02323 105.047 7.75216C106.312 8.4738 107.288 9.48701 107.973 10.7918C108.658 12.0893 109 13.6055 109 15.3403C109 17.0606 108.658 18.5731 107.973 19.8779C107.288 21.1754 106.312 22.1886 105.047 22.9175C103.789 23.6392 102.292 24 100.558 24ZM100.58 20.3918C101.369 20.3918 102.028 20.1731 102.556 19.7358C103.085 19.2911 103.483 18.6861 103.751 17.9207C104.027 17.1554 104.165 16.2843 104.165 15.3075C104.165 14.3308 104.027 13.4597 103.751 12.6943C103.483 11.9289 103.085 11.3239 102.556 10.8793C102.028 10.4346 101.369 10.2123 100.58 10.2123C99.7833 10.2123 99.1132 10.4346 98.5698 10.8793C98.0337 11.3239 97.628 11.9289 97.3525 12.6943C97.0845 13.4597 96.9505 14.3308 96.9505 15.3075C96.9505 16.2843 97.0845 17.1554 97.3525 17.9207C97.628 18.6861 98.0337 19.2911 98.5698 19.7358C99.1132 20.1731 99.7833 20.3918 100.58 20.3918Z" fill="white" fill-opacity="0.88"/>
</svg>
