<svg width="32" height="24" viewBox="0 0 32 24" fill="none" xmlns="http://www.w3.org/2000/svg">
<path fill-rule="evenodd" clip-rule="evenodd" d="M15.845 0.539071C15.1156 0.617753 14.8332 0.768427 14.6236 1.19085C14.3957 1.65047 14.4303 1.80378 15.5947 5.49124C16.1969 7.39796 16.6895 8.97579 16.6895 8.99747C16.6895 9.01922 16.049 9.03627 15.2663 9.03543L13.8431 9.03395L12.7796 7.73862C10.9773 5.54355 10.8613 5.43862 10.2333 5.43559C9.20377 5.43064 8.55677 5.91322 8.55677 6.68608C8.55677 6.86243 8.71511 7.58768 8.92782 8.38532C9.50962 10.5675 9.80797 11.7943 9.80797 12.0046C9.80797 12.2328 9.65032 12.8867 9.02141 15.2669C8.51436 17.1861 8.47826 17.4794 8.69954 17.8812C8.95221 18.3401 9.44894 18.5593 10.2333 18.5581C10.8418 18.5572 11.0138 18.4093 12.5144 16.5964L13.8458 14.988L15.2677 14.9707C16.0497 14.9612 16.6895 14.973 16.6895 14.9968C16.6895 15.0206 16.1936 16.6164 15.5875 18.5431C14.3552 22.4602 14.352 22.4766 14.7169 22.9687C14.9872 23.3331 15.2843 23.4351 16.2252 23.4862C17.1326 23.5354 17.4142 23.464 17.7692 23.0945C17.8641 22.9958 19.3514 21.1242 21.0745 18.9354L24.2073 14.9559L24.6243 14.9552C25.509 14.9539 27.8072 14.8204 28.442 14.7334C30.1893 14.4939 31.3563 13.8606 31.813 12.9041C32.0633 12.3802 32.0622 11.6105 31.8106 11.0835C31.3975 10.2185 30.3369 9.6048 28.7687 9.32359C28.476 9.27109 27.7005 9.19878 27.0455 9.16288C26.3905 9.12698 25.4755 9.07673 25.0124 9.05119L24.1702 9.00481L21.0711 5.06901C19.3666 2.90431 17.9016 1.05588 17.8156 0.961305C17.4406 0.5493 16.8745 0.427963 15.845 0.539071ZM19.8358 6.56867C21.5081 8.69651 22.978 10.5236 23.1021 10.6288C23.451 10.9245 23.6643 10.9588 25.5997 11.0301C28.1343 11.1235 29.0095 11.2472 29.7 11.6094C30.2199 11.8822 30.2574 12.0513 29.8558 12.3131C29.2197 12.728 28.3 12.8725 25.573 12.9858C23.3657 13.0774 23.3079 13.0903 22.8787 13.5861C22.7606 13.7226 21.3283 15.5333 19.6958 17.6099C18.0632 19.6865 16.7173 21.3751 16.7049 21.3623C16.6923 21.3495 17.1801 19.7611 17.7888 17.8328C18.8142 14.5837 18.8921 14.3037 18.85 14.0155C18.7937 13.6294 18.4188 13.2077 18.0344 13.0979C17.7023 13.0031 13.8077 13.0004 13.3801 13.0948C12.9227 13.1956 12.6628 13.4232 11.7741 14.5009C11.3347 15.0339 10.966 15.4606 10.9549 15.4491C10.9438 15.4377 11.0853 14.8371 11.2694 14.1145C11.7884 12.0772 11.7862 12.0973 11.5917 11.2232C11.5013 10.8169 11.3148 10.0543 11.1771 9.52856C11.0395 9.00275 10.9364 8.56282 10.9479 8.55092C10.9594 8.53908 11.3304 8.96923 11.7721 9.50694C12.6003 10.515 12.9055 10.7903 13.3229 10.9059C13.4765 10.9485 14.3947 10.966 15.8312 10.9539C18.0714 10.9351 18.0998 10.9332 18.3286 10.7869C18.6186 10.6014 18.8063 10.2943 18.8523 9.92995C18.8832 9.6858 18.7411 9.18295 17.7888 6.16747C17.1842 4.2531 16.6895 2.66221 16.6895 2.63223C16.6895 2.55972 16.4141 2.21514 19.8358 6.56867ZM3.62225 7.30004C2.76262 7.50874 2.60672 8.60625 3.37089 9.06914C3.56026 9.18385 3.71885 9.20019 4.83447 9.21969C6.33259 9.24594 6.65114 9.19318 6.92397 8.87363C7.41037 8.30393 7.14255 7.46313 6.4243 7.30474C6.06721 7.22599 3.942 7.22239 3.62225 7.30004ZM0.5131 11.1613C-0.169801 11.5089 -0.171365 12.5243 0.51041 12.857C0.847169 13.0213 6.36049 13.0139 6.67554 12.8487C7.34412 12.4982 7.33511 11.4715 6.66065 11.1566C6.41554 11.0422 6.21535 11.0341 3.58328 11.0329C0.884329 11.0315 0.757583 11.0368 0.5131 11.1613ZM3.3017 14.9719C2.72521 15.3766 2.73647 16.1396 3.32566 16.5924C3.48631 16.7159 3.59773 16.7264 4.93745 16.7446C6.28286 16.7628 6.3939 16.7555 6.64189 16.632C7.29557 16.3065 7.35475 15.3894 6.74892 14.9732C6.54254 14.8314 6.49224 14.8272 5.02215 14.8272C3.55469 14.8272 3.50158 14.8316 3.3017 14.9719Z" fill="url(#paint0_linear_6_39)"/>
<defs>
<linearGradient id="paint0_linear_6_39" x1="32" y1="12" x2="0" y2="12" gradientUnits="userSpaceOnUse">
<stop stop-color="#F5C26E"/>
<stop offset="1" stop-color="#66E5FB"/>
</linearGradient>
</defs>
</svg>
