<svg width="32" height="32" viewBox="0 0 32 32" fill="none" xmlns="http://www.w3.org/2000/svg">
<path d="M27.1696 9.27172L22.7807 13.3928L26.9542 24.8699L23.8241 28L17.5889 18.8732L14.4337 21.7398V24.8699L11.3036 28L9.45261 22.5413L4 20.6964L7.13012 17.5663H10.2602L13.3904 14.4362L4 8.17592L7.13012 5.0458L18.6072 9.21929L22.743 4.84507L22.6541 4.91922C22.9447 4.62804 23.2898 4.39698 23.6697 4.23925C24.0496 4.08153 24.4568 4.00023 24.8682 4C25.2795 3.99977 25.6869 4.08063 26.0669 4.23794C26.447 4.39525 26.7923 4.62593 27.0832 4.91679C27.3741 5.20765 27.6048 5.553 27.7621 5.93307C27.9194 6.31314 28.0002 6.7205 28 7.13184C27.9998 7.54318 27.9185 7.95045 27.7607 8.33035C27.603 8.71025 27.372 9.05533 27.0808 9.34588L27.1696 9.27172Z" stroke="url(#paint0_linear_6_156)" stroke-width="2" stroke-linecap="round" stroke-linejoin="round"/>
<defs>
<linearGradient id="paint0_linear_6_156" x1="28" y1="16" x2="4" y2="16" gradientUnits="userSpaceOnUse">
<stop stop-color="#F5C26E"/>
<stop offset="1" stop-color="#66E5FB"/>
</linearGradient>
</defs>
</svg>
