<svg width="33" height="32" viewBox="0 0 33 32" fill="none" xmlns="http://www.w3.org/2000/svg">
<path d="M25.3333 10.6471C25.3333 10.2102 25.1507 9.7913 24.8256 9.48241C24.5006 9.17353 24.0597 9 23.6 9H19.2665L25.3333 18.8823M8.00008 9H11.0335L17.1003 18.8823M21.2264 12.2941H13.0558L8.00008 18.8824M29.6666 18.8824C29.6666 21.1565 27.7265 23 25.3332 23C22.9399 23 20.9998 21.1565 20.9998 18.8824C20.9998 16.6082 22.9399 14.7647 25.3332 14.7647C27.7265 14.7647 29.6666 16.6082 29.6666 18.8824ZM12.3335 18.8824C12.3335 21.1565 10.3933 23 8.00004 23C5.60676 23 3.66663 21.1565 3.66663 18.8824C3.66663 16.6082 5.60676 14.7647 8.00004 14.7647C10.3933 14.7647 12.3335 16.6082 12.3335 18.8824Z" stroke="url(#paint0_linear_6_159)" stroke-width="2" stroke-linecap="round" stroke-linejoin="round"/>
<defs>
<linearGradient id="paint0_linear_6_159" x1="29.6666" y1="16" x2="3.66663" y2="16" gradientUnits="userSpaceOnUse">
<stop stop-color="#F5C26E"/>
<stop offset="1" stop-color="#66E5FB"/>
</linearGradient>
</defs>
</svg>
